<svg width="24" height="24" viewBox="0 0 24 24" fill="none" xmlns="http://www.w3.org/2000/svg">
<g clip-path="url(#clip0_17_181)">
<path fill-rule="evenodd" clip-rule="evenodd" d="M23.0373 3.36602C22.8463 2.18447 22.1336 1.47298 20.9855 1.31062C20.9576 1.30393 18.1615 0.767578 13.7734 0.767578C9.38648 0.767578 6.5904 1.30393 6.57154 1.30819C5.67337 1.43589 5.04702 1.89623 4.72168 2.64116C6.60203 2.43329 8.49258 2.33117 10.3844 2.33528C14.6375 2.33528 17.467 2.8242 17.8824 2.90082C19.7547 3.18177 21.0567 4.48069 21.3717 6.38406C21.5079 7.00433 21.9384 9.18501 21.9384 11.7883C21.9384 13.1821 21.8132 14.461 21.6782 15.4382C22.4201 15.1244 22.8871 14.4956 23.0342 13.5871C23.0391 13.5646 23.5773 11.2678 23.5773 8.46988C23.5773 5.67258 23.0391 3.37575 23.0361 3.36542" fill="white"/>
<path fill-rule="evenodd" clip-rule="evenodd" d="M19.6487 6.68378C19.4577 5.50161 18.7444 4.79013 17.5969 4.62715C17.5689 4.62107 14.7728 4.08594 10.3853 4.08594C5.99845 4.08594 3.20176 4.62107 3.18352 4.62594C2.02629 4.79013 1.31359 5.50161 1.12568 6.67101C1.1196 6.69351 0.582031 8.99033 0.582031 11.7882C0.582031 14.5855 1.1196 16.8824 1.12264 16.8921C1.31359 18.0742 2.02629 18.7857 3.1744 18.9487C3.1969 18.953 5.01088 19.3002 7.99852 19.4358L9.77906 22.5201C9.84047 22.6266 9.92884 22.715 10.0353 22.7765C10.1417 22.8379 10.2624 22.8703 10.3853 22.8703C10.5082 22.8703 10.629 22.8379 10.7354 22.7765C10.8418 22.715 10.9302 22.6266 10.9916 22.5201L12.7728 19.4364C15.7604 19.3002 17.5726 18.9536 17.5878 18.9499C18.7444 18.7857 19.4577 18.0742 19.6456 16.9049C19.6517 16.8824 20.1887 14.5855 20.1887 11.7882C20.1887 8.99033 19.6511 6.69351 19.6487 6.68378Z" fill="white"/>
</g>
<defs>
<clipPath id="clip0_17_181">
<rect width="24" height="22.5" fill="white" transform="translate(0 0.75)"/>
</clipPath>
</defs>
</svg>
