<svg width="20" height="21" viewBox="0 0 20 21" fill="none" xmlns="http://www.w3.org/2000/svg">
<path fill-rule="evenodd" clip-rule="evenodd" d="M20 10.3008C20 15.8236 15.5228 20.3008 10 20.3008C4.47715 20.3008 0 15.8236 0 10.3008C0 4.77793 4.47715 0.300781 10 0.300781C15.5228 0.300781 20 4.77793 20 10.3008ZM18 10.3008C18 14.7191 14.4183 18.3008 10 18.3008C5.58172 18.3008 2 14.7191 2 10.3008C2 5.8825 5.58172 2.30078 10 2.30078C12.3582 2.30078 14.478 3.3211 15.9422 4.94436L9 11.8866L6.20711 9.09367C5.81658 8.70315 5.18342 8.70315 4.79289 9.09367C4.40237 9.4842 4.40237 10.1174 4.79289 10.5079L7.58579 13.3008C8.36684 14.0818 9.63317 14.0818 10.4142 13.3008L17.1015 6.61354C17.6755 7.71694 18 8.97097 18 10.3008Z" fill="#83BF6E"/>
</svg>
