<svg width="24" height="25" viewBox="0 0 24 25" fill="none" xmlns="http://www.w3.org/2000/svg">
<path d="M21.9199 11.9008C19.8999 7.21078 16.0999 4.30078 11.9999 4.30078C7.89994 4.30078 4.09994 7.21078 2.07994 11.9008C2.02488 12.0269 1.99646 12.1631 1.99646 12.3008C1.99646 12.4384 2.02488 12.5746 2.07994 12.7008C4.09994 17.3908 7.89994 20.3008 11.9999 20.3008C16.0999 20.3008 19.8999 17.3908 21.9199 12.7008C21.975 12.5746 22.0034 12.4384 22.0034 12.3008C22.0034 12.1631 21.975 12.0269 21.9199 11.9008ZM11.9999 18.3008C8.82994 18.3008 5.82994 16.0108 4.09994 12.3008C5.82994 8.59078 8.82994 6.30078 11.9999 6.30078C15.1699 6.30078 18.1699 8.59078 19.8999 12.3008C18.1699 16.0108 15.1699 18.3008 11.9999 18.3008ZM11.9999 8.30078C11.2088 8.30078 10.4355 8.53538 9.77766 8.9749C9.11987 9.41443 8.60718 10.0391 8.30443 10.77C8.00168 11.501 7.92246 12.3052 8.0768 13.0811C8.23114 13.8571 8.61211 14.5698 9.17152 15.1292C9.73093 15.6886 10.4437 16.0696 11.2196 16.2239C11.9955 16.3783 12.7998 16.2991 13.5307 15.9963C14.2616 15.6935 14.8863 15.1809 15.3258 14.5231C15.7653 13.8653 15.9999 13.0919 15.9999 12.3008C15.9999 11.2399 15.5785 10.2225 14.8284 9.47235C14.0782 8.72221 13.0608 8.30078 11.9999 8.30078ZM11.9999 14.3008C11.6044 14.3008 11.2177 14.1835 10.8888 13.9637C10.5599 13.744 10.3036 13.4316 10.1522 13.0661C10.0008 12.7007 9.9612 12.2986 10.0384 11.9106C10.1155 11.5226 10.306 11.1663 10.5857 10.8866C10.8654 10.6069 11.2218 10.4164 11.6098 10.3392C11.9977 10.262 12.3999 10.3016 12.7653 10.453C13.1308 10.6044 13.4431 10.8607 13.6629 11.1896C13.8826 11.5185 13.9999 11.9052 13.9999 12.3008C13.9999 12.8312 13.7892 13.3399 13.4142 13.715C13.0391 14.0901 12.5304 14.3008 11.9999 14.3008Z" fill="#6F767E"/>
</svg>
