<svg width="25" height="24" viewBox="0 0 25 24" fill="none" xmlns="http://www.w3.org/2000/svg">
<path d="M17.9572 9.29099C18.3477 9.68151 18.3477 10.3147 17.9572 10.7052C17.5667 11.0957 16.9335 11.0957 16.543 10.7052L13.752 7.91426V15.0005C13.752 15.5528 13.3043 16.0005 12.752 16.0005C12.1998 16.0005 11.752 15.5528 11.752 15.0005V7.91417L8.95906 10.7072C8.56854 11.0977 7.93537 11.0977 7.54485 10.7072C7.15432 10.3166 7.15432 9.68347 7.54485 9.29294L12.0449 4.79289C12.2324 4.60536 12.4868 4.5 12.752 4.5C13.0172 4.5 13.2716 4.60536 13.4591 4.79289L17.9572 9.29099Z" fill="#1A1D1F"/>
<path fill-rule="evenodd" clip-rule="evenodd" d="M4.75 14C5.30228 14 5.75 14.4477 5.75 15V17C5.75 17.5523 6.19772 18 6.75 18H18.75C19.3023 18 19.75 17.5523 19.75 17V15C19.75 14.4477 20.1977 14 20.75 14C21.3023 14 21.75 14.4477 21.75 15V17C21.75 18.6569 20.4069 20 18.75 20H6.75C5.09315 20 3.75 18.6569 3.75 17V15C3.75 14.4477 4.19772 14 4.75 14Z" fill="#1A1D1F"/>
</svg>
